<svg width="143" height="35" viewBox="0 0 143 35" fill="none" xmlns="http://www.w3.org/2000/svg">
<path d="M16.134 10.42H18.168V23.542H21.894V25H16.134V10.42ZM23.3963 10.42H25.3943V25H23.3963V10.42ZM27.9871 10.42H29.9851L32.5591 22.246L35.1511 10.42H37.1311L37.4011 25H35.7631L35.6011 14.416L33.1351 25H31.9831L29.5351 14.416L29.3731 25H27.7171L27.9871 10.42ZM39.636 10.42H45.288V11.932H41.67V16.756H44.604V18.196H41.67V23.542H45.324V25H39.636V10.42ZM48.568 11.932H46.102V10.42H52.996V11.932H50.602V25H48.568V11.932ZM54.4016 10.42H60.0536V11.932H56.4356V16.756H59.3696V18.196H56.4356V23.542H60.0896V25H54.4016V10.42ZM61.7317 10.42H64.8997C66.4717 10.42 67.5817 10.78 68.2297 11.5C68.8897 12.22 69.2197 13.342 69.2197 14.866V20.23C69.2197 21.838 68.8957 23.038 68.2477 23.83C67.6117 24.61 66.5497 25 65.0617 25H61.7317V10.42ZM64.9177 23.542C65.6257 23.542 66.1357 23.404 66.4477 23.128C66.7717 22.852 66.9697 22.48 67.0417 22.012C67.1257 21.532 67.1677 20.812 67.1677 19.852V15.118C67.1677 14.29 67.1137 13.66 67.0057 13.228C66.9097 12.784 66.6997 12.46 66.3757 12.256C66.0517 12.04 65.5477 11.932 64.8637 11.932H63.7657V23.542H64.9177ZM75.3371 10.42H80.9891V11.932H77.3711V16.756H80.3051V18.196H77.3711V23.542H81.0251V25H75.3371V10.42ZM82.6672 10.42H85.8352C87.4072 10.42 88.5172 10.78 89.1652 11.5C89.8252 12.22 90.1552 13.342 90.1552 14.866V20.23C90.1552 21.838 89.8312 23.038 89.1832 23.83C88.5472 24.61 87.4852 25 85.9972 25H82.6672V10.42ZM85.8532 23.542C86.5612 23.542 87.0712 23.404 87.3832 23.128C87.7072 22.852 87.9052 22.48 87.9772 22.012C88.0612 21.532 88.1032 20.812 88.1032 19.852V15.118C88.1032 14.29 88.0492 13.66 87.9412 13.228C87.8452 12.784 87.6352 12.46 87.3112 12.256C86.9872 12.04 86.4832 11.932 85.7992 11.932H84.7012V23.542H85.8532ZM92.2674 10.42H94.2654V25H92.2674V10.42ZM98.2262 11.932H95.7602V10.42H102.654V11.932H100.26V25H98.2262V11.932ZM104.168 10.42H106.166V25H104.168V10.42ZM112.251 25.162C110.823 25.162 109.797 24.76 109.173 23.956C108.561 23.14 108.255 21.964 108.255 20.428V14.902C108.255 13.39 108.567 12.244 109.191 11.464C109.815 10.684 110.835 10.294 112.251 10.294C113.667 10.294 114.681 10.69 115.293 11.482C115.917 12.262 116.229 13.402 116.229 14.902V20.446C116.229 21.958 115.917 23.122 115.293 23.938C114.669 24.754 113.655 25.162 112.251 25.162ZM112.251 23.56C113.007 23.56 113.517 23.338 113.781 22.894C114.045 22.45 114.177 21.778 114.177 20.878V14.488C114.177 13.6 114.045 12.946 113.781 12.526C113.517 12.094 113.007 11.878 112.251 11.878C111.483 11.878 110.967 12.094 110.703 12.526C110.439 12.946 110.307 13.6 110.307 14.488V20.878C110.307 21.778 110.439 22.45 110.703 22.894C110.967 23.338 111.483 23.56 112.251 23.56ZM118.228 10.42H119.614L123.754 20.104V10.42H125.446V25H124.15L119.956 15.046V25H118.228V10.42Z" fill="#F7BC25"/>
<rect x="0.5" y="0.5" width="142" height="34" stroke="#F7BC25"/>
</svg>
