<svg width="131" height="35" viewBox="0 0 131 35" fill="none" xmlns="http://www.w3.org/2000/svg">
<path d="M13.6985 10.42H15.7325V16.72H19.4765V10.42H21.5105V25H19.4765V18.178H15.7325V25H13.6985V10.42ZM27.5143 25.162C26.0863 25.162 25.0603 24.76 24.4363 23.956C23.8243 23.14 23.5183 21.964 23.5183 20.428V14.902C23.5183 13.39 23.8303 12.244 24.4543 11.464C25.0783 10.684 26.0983 10.294 27.5143 10.294C28.9303 10.294 29.9443 10.69 30.5563 11.482C31.1803 12.262 31.4923 13.402 31.4923 14.902V20.446C31.4923 21.958 31.1803 23.122 30.5563 23.938C29.9323 24.754 28.9183 25.162 27.5143 25.162ZM27.5143 23.56C28.2703 23.56 28.7803 23.338 29.0443 22.894C29.3083 22.45 29.4403 21.778 29.4403 20.878V14.488C29.4403 13.6 29.3083 12.946 29.0443 12.526C28.7803 12.094 28.2703 11.878 27.5143 11.878C26.7463 11.878 26.2303 12.094 25.9663 12.526C25.7023 12.946 25.5703 13.6 25.5703 14.488V20.878C25.5703 21.778 25.7023 22.45 25.9663 22.894C26.2303 23.338 26.7463 23.56 27.5143 23.56ZM33.4914 10.42H36.8394C38.1594 10.42 39.1374 10.72 39.7734 11.32C40.4094 11.908 40.7274 12.826 40.7274 14.074C40.7274 15.934 40.0314 16.96 38.6394 17.152C39.5034 17.356 40.1334 17.764 40.5294 18.376C40.9254 18.976 41.1234 19.798 41.1234 20.842C41.1234 22.15 40.8114 23.17 40.1874 23.902C39.5754 24.634 38.6394 25 37.3794 25H33.4914V10.42ZM36.7314 16.504C37.5714 16.504 38.1534 16.324 38.4774 15.964C38.8014 15.592 38.9634 14.962 38.9634 14.074C38.9634 13.426 38.8614 12.952 38.6574 12.652C38.4654 12.34 38.1714 12.142 37.7754 12.058C37.3794 11.974 36.7914 11.932 36.0114 11.932H35.5254V16.504H36.7314ZM36.8934 23.542C37.4934 23.542 37.9554 23.452 38.2794 23.272C38.6154 23.08 38.8494 22.792 38.9814 22.408C39.1134 22.024 39.1794 21.502 39.1794 20.842C39.1794 19.906 38.9874 19.21 38.6034 18.754C38.2194 18.286 37.5954 18.052 36.7314 18.052H35.5254V23.542H36.8934ZM42.9309 10.42H44.7309V20.518L48.9969 10.42H50.4549V25H48.6729V14.74L44.4429 25H42.9309V10.42ZM52.7395 10.42H54.7735V16.72H58.5175V10.42H60.5515V25H58.5175V18.178H54.7735V25H52.7395V10.42ZM62.8293 10.42H64.8633V16.9H65.6193L68.2293 10.42H70.2633L67.3833 17.35L70.6233 25H68.5893L65.6373 17.89H64.8633V25H62.8293V10.42ZM74.2739 10.42H76.2359L79.3499 25H77.4239L76.7579 21.328H73.7879L73.0859 25H71.1779L74.2739 10.42ZM76.4879 19.87L75.2639 13.3L74.0579 19.87H76.4879ZM84.5466 23.632L88.2546 17.854C88.4346 17.566 88.5546 17.386 88.6146 17.314C89.0346 16.642 89.3406 16.084 89.5326 15.64C89.7246 15.196 89.8206 14.662 89.8206 14.038C89.8206 13.342 89.7066 12.808 89.4786 12.436C89.2506 12.064 88.8786 11.878 88.3626 11.878C87.2106 11.878 86.6346 12.772 86.6346 14.56V15.046H84.7086V14.542C84.7086 13.174 84.9906 12.124 85.5546 11.392C86.1186 10.66 87.0246 10.294 88.2726 10.294C89.4246 10.294 90.2946 10.624 90.8826 11.284C91.4706 11.932 91.7646 12.856 91.7646 14.056C91.7646 14.644 91.6926 15.172 91.5486 15.64C91.4166 16.096 91.2546 16.492 91.0626 16.828C90.8706 17.164 90.5706 17.644 90.1626 18.268L86.8146 23.38H91.4226V25H84.5466V23.632ZM97.0663 25.162C95.8663 25.162 94.9603 24.772 94.3483 23.992C93.7483 23.212 93.4483 22.168 93.4483 20.86V14.578C93.4483 13.246 93.7423 12.202 94.3303 11.446C94.9303 10.678 95.8423 10.294 97.0663 10.294C98.2783 10.294 99.1783 10.678 99.7663 11.446C100.366 12.202 100.666 13.246 100.666 14.578V20.86C100.666 22.18 100.366 23.23 99.7663 24.01C99.1663 24.778 98.2663 25.162 97.0663 25.162ZM97.0663 23.578C98.1703 23.578 98.7223 22.678 98.7223 20.878V14.56C98.7223 13.732 98.6023 13.078 98.3623 12.598C98.1343 12.106 97.7023 11.86 97.0663 11.86C96.4303 11.86 95.9923 12.106 95.7523 12.598C95.5123 13.078 95.3923 13.732 95.3923 14.56V20.878C95.3923 22.678 95.9503 23.578 97.0663 23.578ZM102.441 23.632L106.149 17.854C106.329 17.566 106.449 17.386 106.509 17.314C106.929 16.642 107.235 16.084 107.427 15.64C107.619 15.196 107.715 14.662 107.715 14.038C107.715 13.342 107.601 12.808 107.373 12.436C107.145 12.064 106.773 11.878 106.257 11.878C105.105 11.878 104.529 12.772 104.529 14.56V15.046H102.603V14.542C102.603 13.174 102.885 12.124 103.449 11.392C104.013 10.66 104.919 10.294 106.167 10.294C107.319 10.294 108.189 10.624 108.777 11.284C109.365 11.932 109.659 12.856 109.659 14.056C109.659 14.644 109.587 15.172 109.443 15.64C109.311 16.096 109.149 16.492 108.957 16.828C108.765 17.164 108.465 17.644 108.057 18.268L104.709 23.38H109.317V25H102.441V23.632ZM113.377 12.94C113.353 12.976 112.987 13.06 112.279 13.192C111.583 13.324 111.103 13.414 110.839 13.462V12.004C112.303 11.656 113.305 11.128 113.845 10.42H115.303V25H113.377V12.94Z" fill="white"/>
<rect x="1" y="0.5" width="129" height="34" stroke="white"/>
</svg>
