<svg width="84" height="31" viewBox="0 0 84 31" fill="none" xmlns="http://www.w3.org/2000/svg">
<path d="M8.68262 16.9385H10.2734V18.6523H8.68262V21.5H6.54688V18.6523H1.01855L0.957031 17.3516L6.47656 8.70312H8.68262V16.9385ZM3.19824 16.9385H6.54688V11.5947L6.38867 11.876L3.19824 16.9385ZM19.748 12.0781C19.748 12.7051 19.5869 13.2646 19.2646 13.7568C18.9424 14.2432 18.5029 14.627 17.9463 14.9082C18.6143 15.2188 19.127 15.6436 19.4844 16.1826C19.8477 16.7217 20.0293 17.3311 20.0293 18.0107C20.0293 19.1357 19.6484 20.0293 18.8867 20.6914C18.125 21.3477 17.1113 21.6758 15.8457 21.6758C14.5742 21.6758 13.5547 21.3447 12.7871 20.6826C12.0254 20.0205 11.6445 19.1299 11.6445 18.0107C11.6445 17.3252 11.8262 16.71 12.1895 16.165C12.5527 15.6201 13.0625 15.2012 13.7188 14.9082C13.168 14.627 12.7314 14.2432 12.4092 13.7568C12.0928 13.2646 11.9346 12.7051 11.9346 12.0781C11.9346 10.9883 12.2861 10.124 12.9893 9.48535C13.6924 8.84668 14.6416 8.52734 15.8369 8.52734C17.0381 8.52734 17.9902 8.84668 18.6934 9.48535C19.3965 10.124 19.748 10.9883 19.748 12.0781ZM17.8936 17.9053C17.8936 17.2725 17.7031 16.7627 17.3223 16.376C16.9473 15.9834 16.4492 15.7871 15.8281 15.7871C15.207 15.7871 14.709 15.9805 14.334 16.3672C13.9648 16.7539 13.7803 17.2666 13.7803 17.9053C13.7803 18.5322 13.9619 19.0332 14.3252 19.4082C14.6943 19.7832 15.2012 19.9707 15.8457 19.9707C16.4902 19.9707 16.9912 19.7891 17.3486 19.4258C17.7119 19.0625 17.8936 18.5557 17.8936 17.9053ZM17.6211 12.1572C17.6211 11.6006 17.46 11.1436 17.1377 10.7861C16.8154 10.4229 16.3818 10.2412 15.8369 10.2412C15.292 10.2412 14.8613 10.4141 14.5449 10.7598C14.2285 11.0996 14.0703 11.5654 14.0703 12.1572C14.0703 12.7432 14.2285 13.209 14.5449 13.5547C14.8672 13.9004 15.3008 14.0732 15.8457 14.0732C16.3906 14.0732 16.8213 13.9004 17.1377 13.5547C17.46 13.209 17.6211 12.7432 17.6211 12.1572Z" fill="white" fill-opacity="0.75"/>
<rect x="27.5" y="8.5" width="56" height="14" rx="3" fill="#E8E8E8"/>
<path d="M34.5986 16.4463V20.5H33.7578V10.5469H37.1484C38.1829 10.5469 38.9987 10.8112 39.5957 11.3398C40.1973 11.8685 40.498 12.5954 40.498 13.5205C40.498 14.4548 40.2087 15.1771 39.6299 15.6875C39.0557 16.1934 38.2217 16.4463 37.1279 16.4463H34.5986ZM34.5986 15.7354H37.1484C37.9642 15.7354 38.5863 15.5417 39.0146 15.1543C39.443 14.7669 39.6572 14.2269 39.6572 13.5342C39.6572 12.846 39.443 12.2992 39.0146 11.8936C38.5908 11.4834 37.987 11.2738 37.2031 11.2646H34.5986V15.7354ZM43.4102 20.5H42.5693V10.5469H43.4102V20.5ZM51.6133 15.7285H46.958V19.7891H52.3105V20.5H46.1172V10.5469H52.2764V11.2646H46.958V15.0176H51.6133V15.7285ZM61.1357 17.3965C61.0218 18.4447 60.6458 19.2467 60.0078 19.8027C59.3743 20.3587 58.529 20.6367 57.4717 20.6367C56.7334 20.6367 56.0794 20.4521 55.5098 20.083C54.9447 19.7139 54.5072 19.1921 54.1973 18.5176C53.8874 17.8385 53.7301 17.0638 53.7256 16.1934V14.9014C53.7256 14.0173 53.8805 13.2334 54.1904 12.5498C54.5003 11.8662 54.9447 11.3398 55.5234 10.9707C56.1068 10.597 56.7767 10.4102 57.5332 10.4102C58.5996 10.4102 59.4404 10.6995 60.0557 11.2783C60.6755 11.8525 61.0355 12.6478 61.1357 13.6641H60.2881C60.0785 11.9733 59.1602 11.1279 57.5332 11.1279C56.6309 11.1279 55.9108 11.4652 55.373 12.1396C54.8398 12.8141 54.5732 13.7461 54.5732 14.9355V16.1523C54.5732 17.3008 54.833 18.2168 55.3525 18.9004C55.8766 19.584 56.583 19.9258 57.4717 19.9258C58.3512 19.9258 59.0143 19.7161 59.4609 19.2969C59.9076 18.873 60.1833 18.2396 60.2881 17.3965H61.1357ZM68.6758 15.7285H64.0205V19.7891H69.373V20.5H63.1797V10.5469H69.3389V11.2646H64.0205V15.0176H68.6758V15.7285ZM76.7832 18.0527C76.7832 17.5013 76.5895 17.0661 76.2021 16.7471C75.8148 16.4235 75.1061 16.1182 74.0762 15.8311C73.0462 15.5394 72.2943 15.2227 71.8203 14.8809C71.1458 14.3978 70.8086 13.7643 70.8086 12.9805C70.8086 12.2194 71.1208 11.6019 71.7451 11.1279C72.374 10.6494 73.1761 10.4102 74.1514 10.4102C74.8122 10.4102 75.4023 10.5378 75.9219 10.793C76.446 11.0482 76.8516 11.4036 77.1387 11.8594C77.4258 12.3151 77.5693 12.8232 77.5693 13.3838H76.7217C76.7217 12.7048 76.4893 12.1602 76.0244 11.75C75.5596 11.3353 74.9352 11.1279 74.1514 11.1279C73.3903 11.1279 72.7842 11.2988 72.333 11.6406C71.8818 11.9779 71.6562 12.4199 71.6562 12.9668C71.6562 13.4727 71.859 13.8851 72.2646 14.2041C72.6702 14.5231 73.3197 14.8057 74.2129 15.0518C75.1061 15.2933 75.7829 15.5462 76.2432 15.8105C76.7035 16.0703 77.0498 16.3825 77.2822 16.7471C77.5146 17.1117 77.6309 17.5423 77.6309 18.0391C77.6309 18.8229 77.3164 19.4518 76.6875 19.9258C76.0632 20.3997 75.2383 20.6367 74.2129 20.6367C73.5111 20.6367 72.8662 20.5114 72.2783 20.2607C71.695 20.0101 71.2507 19.6592 70.9453 19.208C70.6445 18.7568 70.4941 18.2396 70.4941 17.6562H71.335C71.335 18.3581 71.597 18.9118 72.1211 19.3174C72.6452 19.723 73.3424 19.9258 74.2129 19.9258C74.9876 19.9258 75.6097 19.7549 76.0791 19.4131C76.5485 19.0713 76.7832 18.6178 76.7832 18.0527Z" fill="#1E2D35"/>
</svg>
