<svg width="28" height="21" viewBox="0 0 28 21" fill="none" xmlns="http://www.w3.org/2000/svg">
<path fill-rule="evenodd" clip-rule="evenodd" d="M24.917 4.18216L27.917 10.5452C27.9705 10.6583 27.9981 10.7802 27.998 10.9033V17.2664C27.998 17.5074 27.8927 17.7386 27.7051 17.9091C27.5176 18.0796 27.2632 18.1754 26.998 18.1754H24.856C24.6385 18.9555 24.141 19.6474 23.4422 20.1417C22.7435 20.6359 21.8834 20.9043 20.998 20.9043C20.1126 20.9043 19.2526 20.6359 18.5538 20.1417C17.8551 19.6474 17.3576 18.9555 17.14 18.1754H10.856C10.6126 19.0322 10.0338 19.779 9.22803 20.2757C8.42225 20.7724 7.44485 20.9849 6.47904 20.8734C5.51323 20.7619 4.62531 20.334 3.98172 19.67C3.33813 19.0059 2.98306 18.1513 2.98306 17.2664C2.98306 16.3814 3.33813 15.5268 3.98172 14.8627C4.62531 14.1987 5.51323 13.7708 6.47904 13.6593C7.44485 13.5478 8.42225 13.7603 9.22803 14.257C10.0338 14.7537 10.6126 15.5005 10.856 16.3573H17.14C17.2731 15.8939 17.5058 15.459 17.8247 15.0777C18.1436 14.6964 18.5424 14.3763 18.998 14.1357V2.7223H3.99804V0.904297H19.998C20.2632 0.904297 20.5176 1.00007 20.7051 1.17054C20.8927 1.34101 20.998 1.57222 20.998 1.8133V3.63131H23.998C24.1937 3.63121 24.3851 3.68336 24.5485 3.78129C24.7119 3.87922 24.84 4.01861 24.917 4.18216ZM5.8869 18.778C6.2158 18.9777 6.60248 19.0844 6.99804 19.0844C7.52831 19.0839 8.03671 18.8922 8.41167 18.5513C8.78663 18.2105 8.99751 17.7484 8.99804 17.2664C8.99804 16.9068 8.88074 16.5553 8.66098 16.2563C8.44122 15.9574 8.12886 15.7243 7.76341 15.5867C7.39795 15.4491 6.99582 15.4131 6.60786 15.4833C6.2199 15.5534 5.86353 15.7266 5.58383 15.9808C5.30412 16.2351 5.11364 16.559 5.03647 16.9117C4.9593 17.2643 4.99891 17.6299 5.15028 17.9621C5.30166 18.2943 5.558 18.5782 5.8869 18.778ZM23.338 5.44931H20.998V9.99433H25.482L23.338 5.44931ZM19.8869 18.778C20.2158 18.9777 20.6025 19.0844 20.998 19.0844C21.5283 19.0839 22.0367 18.8922 22.4117 18.5513C22.7866 18.2105 22.9975 17.7484 22.998 17.2664C22.998 16.9068 22.8807 16.5553 22.661 16.2563C22.4412 15.9574 22.1288 15.7243 21.7634 15.5867C21.3979 15.4491 20.9958 15.4131 20.6078 15.4833C20.2199 15.5534 19.8635 15.7266 19.5838 15.9808C19.3041 16.2351 19.1136 16.559 19.0365 16.9117C18.9593 17.2643 18.9989 17.6299 19.1503 17.9621C19.3016 18.2943 19.558 18.5782 19.8869 18.778ZM24.856 16.3573H25.998V11.8123H20.998V13.6303C21.8825 13.6326 22.7411 13.9015 23.4393 14.395C24.1375 14.8886 24.6357 15.5787 24.856 16.3573ZM0 5.44881H10V7.26641H0V5.44881ZM2.00012 9.99453H14.0002V11.8121H2.00012V9.99453Z" fill="#2C2C2C"/>
</svg>
