<svg width="37" height="38" viewBox="0 0 37 38" fill="none" xmlns="http://www.w3.org/2000/svg">
<g filter="url(#filter0_d)">
<path d="M26.8224 5.64392L26.6613 4.67288L25.6879 4.81863L22.0272 5.36674L19.4226 2.88621L18.7293 2.22586L18.0395 2.88992L15.4282 5.40366L11.7856 4.82996L10.8071 4.67585L10.6437 5.65284L10.0769 9.04256L6.78861 10.6575L5.85885 11.1141L6.34791 12.0272L7.98597 15.0856L6.33664 18.1742L5.8472 19.0908L6.78183 19.5448L10.0454 21.13L10.6224 24.5782L10.7859 25.5554L11.7647 25.4009L15.3974 24.8272L18.0087 27.332L18.6972 27.9925L19.3893 27.3357L21.9942 24.8638L25.6669 25.4123L26.64 25.5576L26.8011 24.587L27.3677 21.1724L30.6811 19.5768L31.6204 19.1244L31.1293 18.2048L29.4789 15.1141L31.1198 12.024L31.6059 11.1085L30.6734 10.6555L27.3894 9.06052L26.8224 5.64392ZM15.6195 11.2002C15.7291 11.0959 15.8877 11.0292 16.0627 11.0292C16.2377 11.0292 16.3964 11.0959 16.506 11.2002C16.6139 11.3031 16.6649 11.4318 16.6649 11.5551C16.6649 11.6784 16.6139 11.8071 16.506 11.9099C16.3964 12.0143 16.2377 12.0809 16.0627 12.0809C15.8877 12.0809 15.7291 12.0143 15.6195 11.9099C15.5115 11.8071 15.4605 11.6784 15.4605 11.5551C15.4605 11.4318 15.5115 11.3031 15.6195 11.2002ZM20.96 18.321C21.0696 18.2166 21.2282 18.1499 21.4033 18.1499C21.5783 18.1499 21.7369 18.2166 21.8465 18.321C21.9545 18.4238 22.0054 18.5525 22.0054 18.6758C22.0054 18.7991 21.9545 18.9278 21.8465 19.0306C21.7369 19.135 21.5783 19.2017 21.4033 19.2017C21.2282 19.2017 21.0696 19.135 20.96 19.0306C20.8521 18.9278 20.8011 18.7991 20.8011 18.6758C20.8011 18.5525 20.8521 18.4238 20.96 18.321ZM22.6235 11.4635L14.8985 18.8207L14.8424 18.7674L22.5675 11.4101L22.6235 11.4635Z" stroke="#2C2C2C" stroke-width="2"/>
</g>
<defs>
<filter id="filter0_d" x="0.476562" y="0.841797" width="36.518" height="36.5332" filterUnits="userSpaceOnUse" color-interpolation-filters="sRGB">
<feFlood flood-opacity="0" result="BackgroundImageFix"/>
<feColorMatrix in="SourceAlpha" type="matrix" values="0 0 0 0 0 0 0 0 0 0 0 0 0 0 0 0 0 0 127 0"/>
<feOffset dy="4"/>
<feGaussianBlur stdDeviation="2"/>
<feColorMatrix type="matrix" values="0 0 0 0 0 0 0 0 0 0 0 0 0 0 0 0 0 0 0.25 0"/>
<feBlend mode="normal" in2="BackgroundImageFix" result="effect1_dropShadow"/>
<feBlend mode="normal" in="SourceGraphic" in2="effect1_dropShadow" result="shape"/>
</filter>
</defs>
</svg>
