<svg width="22" height="30" viewBox="0 0 22 30" fill="none" xmlns="http://www.w3.org/2000/svg">
<path d="M6.29235 0.365101C6.33836 0.399064 6.40563 0.444042 6.5 0.499615C6.66383 0.595665 6.84554 0.710704 7.04139 0.842423C7.00429 0.898904 6.9633 0.948721 6.91984 0.992554L6.5 1M6.29235 0.365101C6.24952 0.31281 6.21535 0.287583 6.20897 0.288043C6.20259 0.288502 6.22401 0.314648 6.29235 0.365101ZM6.29235 0.365101C6.33662 0.419145 6.39013 0.502097 6.43177 0.61548C6.43181 0.615585 6.43185 0.61569 6.43189 0.615795C6.46958 0.718528 6.49751 0.846219 6.5 1M6.5 1C6.50126 1.07083 6.50497 1.15125 6.51036 1.24058C6.64434 1.19778 6.79227 1.12096 6.91918 0.993213L6.5 1ZM13.5111 15.1157C16.0854 14.2369 17.2944 12.1753 17.7591 10.3163C18.618 12.0541 19.4564 14.4613 20.0217 17.129C20.7176 20.4128 20.0176 23.1795 18.887 25.1103C18.3194 26.0798 17.6512 26.8247 17.0137 27.3172C16.3557 27.8254 15.8178 28.0004 15.5 28.0004H15.3931L15.2886 28.023C14.2579 28.2459 12.6575 28.3178 11.2361 27.579C9.87824 26.8732 8.47807 25.3195 7.9902 21.8607L7.50297 18.4065L6.08619 21.5943L7 22.0004C6.08619 21.5943 6.08603 21.5946 6.08586 21.595L6.08549 21.5958L6.08461 21.5978L6.08231 21.6031L6.07563 21.6185C6.07028 21.6309 6.06316 21.6477 6.0545 21.6686C6.03718 21.7104 6.01364 21.7687 5.98566 21.842C5.92976 21.9885 5.8557 22.1958 5.7779 22.4508C5.62322 22.9578 5.44894 23.6692 5.37876 24.4763C5.30249 25.3533 5.3475 26.3953 5.71007 27.4126C3.96984 26.7629 2.89979 25.7675 2.22359 24.6829C1.24492 23.1131 1 21.2117 1 19.5004C1 16.8891 1.72011 14.2397 4.18721 11.7274C7.5403 8.7715 7.71925 4.75091 7.60498 2.49516C8.27734 3.02375 9.02304 3.6672 9.74045 4.36594C11.1591 5.74763 12.293 7.18005 12.6402 8.24237L12.6406 8.24362C13.1968 9.93807 13.0945 11.7834 12.2642 13.7864L11.4169 15.8306L13.5111 15.1157Z" stroke="#2C2C2C" stroke-width="2"/>
</svg>
