<svg width="30" height="27" viewBox="0 0 30 27" fill="none" xmlns="http://www.w3.org/2000/svg">
<path d="M14.6842 26.7371C14.2661 26.7371 13.863 26.5858 13.5489 26.3109C12.3625 25.2744 11.2186 24.3003 10.2094 23.4411L10.2043 23.4367C7.24553 20.9175 4.69054 18.742 2.91282 16.599C0.925605 14.2032 0 11.9316 0 9.45008C0 7.03906 0.827466 4.81474 2.32981 3.18658C3.85008 1.53916 5.93611 0.631836 8.2043 0.631836C9.89956 0.631836 11.4521 1.16732 12.8187 2.22329C13.5083 2.75631 14.1335 3.40865 14.6842 4.16956C15.2352 3.40865 15.8601 2.75631 16.55 2.22329C17.9165 1.16732 19.4691 0.631836 21.1643 0.631836C23.4323 0.631836 25.5186 1.53916 27.0388 3.18658C28.5412 4.81474 29.3684 7.03906 29.3684 9.45008C29.3684 11.9316 28.443 14.2032 26.4558 16.5987C24.6781 18.742 22.1233 20.9173 19.165 23.4362C18.1541 24.2968 17.0084 25.2724 15.8193 26.3113C15.5054 26.5858 15.1021 26.7371 14.6842 26.7371ZM8.2043 2.35067C6.42233 2.35067 4.78532 3.06121 3.59442 4.35157C2.38583 5.6614 1.72013 7.47201 1.72013 9.45008C1.72013 11.5372 2.49651 13.4037 4.23726 15.5022C5.91975 17.5307 8.42231 19.6614 11.3199 22.1286L11.3253 22.1331C12.3383 22.9957 13.4866 23.9735 14.6817 25.0176C15.8841 23.9715 17.0342 22.9921 18.0492 22.1282C20.9466 19.661 23.4489 17.5307 25.1314 15.5022C26.8719 13.4037 27.6483 11.5372 27.6483 9.45008C27.6483 7.47201 26.9826 5.6614 25.774 4.35157C24.5833 3.06121 22.9461 2.35067 21.1643 2.35067C19.859 2.35067 18.6604 2.76526 17.6022 3.58282C16.6591 4.31172 16.0022 5.23314 15.617 5.87787C15.4189 6.20941 15.0703 6.40731 14.6842 6.40731C14.2982 6.40731 13.9495 6.20941 13.7514 5.87787C13.3665 5.23314 12.7095 4.31172 11.7662 3.58282C10.708 2.76526 9.50947 2.35067 8.2043 2.35067Z" fill="white"/>
</svg>
