<svg width="178" height="203" viewBox="0 0 178 203" fill="none" xmlns="http://www.w3.org/2000/svg">
<path opacity="0.4" fill-rule="evenodd" clip-rule="evenodd" d="M89.0008 0.0693359C65.3031 12.9712 33.2595 23.811 5.93333 23.811H0V29.7443C0 79.7615 10.3145 132.821 42.9902 170.382C54.9067 184.081 71.7854 197.429 89 202.613C106.241 197.421 123.056 184.124 135.01 170.382C167.709 132.794 178 79.7042 178 29.7443V23.811H172.067C145.017 23.811 113.048 13.1622 89.0008 0.0693359ZM126.605 161.96C110.48 180.752 94.16 188.147 89.0016 190.14C83.8214 188.138 67.5107 180.741 51.3957 161.96C33.8572 141.519 13.0427 103.127 11.9149 35.5329C46.5114 33.8759 79.2539 18.5062 89.0004 13.5435C98.7469 18.5062 131.489 33.8759 166.086 35.5329C164.957 103.127 144.143 141.519 126.605 161.96ZM35.6051 89.4742C35.6051 118.919 59.5603 142.874 89.0051 142.874C118.45 142.874 142.405 118.919 142.405 89.4742C142.405 59.8111 118.45 35.6787 89.0051 35.6787C59.5603 35.6787 35.6051 59.8115 35.6051 89.4742ZM130.538 89.4742C130.538 112.376 111.907 131.008 89.0051 131.008C66.1036 131.008 47.4718 112.376 47.4718 89.4742C47.4718 66.3548 66.1036 47.5453 89.0051 47.5453C111.907 47.5453 130.538 66.3548 130.538 89.4742ZM61.0857 93.6697L69.4767 85.2788L83.0533 98.8554L108.525 73.0443L116.971 81.3798L83.1091 115.693L61.0857 93.6697Z" fill="#C8CED4"/>
</svg>
